<svg width="24" height="16" viewBox="0 0 24 16" fill="none" xmlns="http://www.w3.org/2000/svg">
<path id="Vector" d="M15.0382 13.7787L14.3168 14.4713L15.7021 15.9139L16.4234 15.2213L15.0382 13.7787ZM22.5 8L23.1926 8.72131C23.389 8.53274 23.5 8.27225 23.5 8C23.5 7.72775 23.389 7.46726 23.1926 7.27869L22.5 8ZM16.4234 0.778695L15.7021 0.0860775L14.3168 1.52869L15.0382 2.22131L16.4234 0.778695ZM16.4234 15.2213L23.1926 8.72131L21.8074 7.27869L15.0382 13.7787L16.4234 15.2213ZM23.1926 7.27869L16.4234 0.778695L15.0382 2.22131L21.8074 8.72131L23.1926 7.27869ZM22.5 7H0.5V9H22.5V7Z" fill="#20475F"/>
</svg>
