<svg width="23" height="16" viewBox="0 0 23 16" fill="none" xmlns="http://www.w3.org/2000/svg">
<path id="Vector" d="M14.5382 13.7787L13.8168 14.4713L15.2021 15.9139L15.9234 15.2213L14.5382 13.7787ZM22 8L22.6926 8.72131C22.889 8.53274 23 8.27225 23 8C23 7.72775 22.889 7.46726 22.6926 7.27869L22 8ZM15.9234 0.778695L15.2021 0.0860775L13.8168 1.52869L14.5382 2.22131L15.9234 0.778695ZM15.9234 15.2213L22.6926 8.72131L21.3074 7.27869L14.5382 13.7787L15.9234 15.2213ZM22.6926 7.27869L15.9234 0.778695L14.5382 2.22131L21.3074 8.72131L22.6926 7.27869ZM22 7H0V9H22V7Z" fill="white"/>
</svg>
