<svg width="25" height="33" viewBox="0 0 25 33" fill="none" xmlns="http://www.w3.org/2000/svg">
<path d="M22.1366 2.96351H18.2332V2.05465C18.2332 1.91532 18.1779 1.78169 18.0793 1.68317C17.9808 1.58465 17.8472 1.5293 17.7078 1.5293H7.28483C7.14549 1.5293 7.01187 1.58465 6.91334 1.68317C6.81482 1.78169 6.75947 1.91532 6.75947 2.05465V2.96351H2.85609C2.3707 2.95649 1.90234 3.14224 1.55371 3.48004C1.20507 3.81784 1.00463 4.28011 0.996338 4.76548V30.1979C1.00463 30.6832 1.20507 31.1455 1.55371 31.4833C1.90234 31.8211 2.3707 32.0069 2.85609 31.9998H22.1366C22.622 32.0069 23.0903 31.8211 23.439 31.4833C23.7876 31.1455 23.988 30.6832 23.9963 30.1979V4.76548C23.988 4.28011 23.7876 3.81784 23.439 3.48004C23.0903 3.14224 22.622 2.95649 22.1366 2.96351ZM7.81018 2.58001H17.1825V4.39248H7.81018V2.58001ZM22.9456 30.1979C22.9374 30.4046 22.8477 30.5997 22.6961 30.7404C22.5445 30.8812 22.3433 30.9562 22.1366 30.9491H2.85609C2.64933 30.9562 2.44817 30.8812 2.29657 30.7404C2.14496 30.5997 2.05525 30.4046 2.04705 30.1979V4.76548C2.05525 4.55876 2.14496 4.3637 2.29657 4.22292C2.44817 4.08215 2.64933 4.00712 2.85609 4.01422H6.75947V4.91783C6.75947 5.05716 6.81482 5.19079 6.91334 5.28931C7.01187 5.38784 7.14549 5.44318 7.28483 5.44318H17.7078C17.8472 5.44318 17.9808 5.38784 18.0793 5.28931C18.1779 5.19079 18.2332 5.05716 18.2332 4.91783V4.01422H22.1366C22.3433 4.00712 22.5445 4.08215 22.6961 4.22292C22.8477 4.3637 22.9374 4.55876 22.9456 4.76548V30.1979Z" fill="white" stroke="white" stroke-width="2"/>
<path d="M6.43163 20.174H10.7963V24.5345C10.7963 24.8982 10.9409 25.247 11.1983 25.5041C11.4557 25.7613 11.8049 25.9057 12.1689 25.9057C12.5329 25.9057 12.882 25.7613 13.1394 25.5041C13.3968 25.247 13.5414 24.8982 13.5414 24.5345V20.174H17.9061C18.2701 20.174 18.6193 20.0295 18.8767 19.7724C19.1341 19.5152 19.2787 19.1665 19.2787 18.8028C19.2787 18.4391 19.1341 18.0903 18.8767 17.8332C18.6193 17.576 18.2701 17.4316 17.9061 17.4316H13.5414V13.0574C13.5414 12.6937 13.3968 12.3449 13.1394 12.0878C12.882 11.8306 12.5329 11.6861 12.1689 11.6861C11.8049 11.6861 11.4557 11.8306 11.1983 12.0878C10.9409 12.3449 10.7963 12.6937 10.7963 13.0574V17.4316H6.43163C6.06761 17.4316 5.7185 17.576 5.46109 17.8332C5.20369 18.0903 5.05908 18.4391 5.05908 18.8028C5.05908 19.1665 5.20369 19.5152 5.46109 19.7724C5.7185 20.0295 6.06761 20.174 6.43163 20.174Z" fill="white" stroke="white" stroke-width="0.5"/>
</svg>
