<svg width="16" height="16" viewBox="0 0 16 16" fill="none" xmlns="http://www.w3.org/2000/svg">
<g clip-path="url(#clip0_92_387)">
<path d="M5.17157 1.17157C6.98258 0.421427 9.01742 0.421427 10.8284 1.17157V1.17157C12.6394 1.92172 14.0783 3.36056 14.8284 5.17157V5.17157C15.5786 6.98258 15.5786 9.01742 14.8284 10.8284V10.8284C14.0783 12.6394 12.6394 14.0783 10.8284 14.8284V14.8284C9.01742 15.5786 6.98258 15.5786 5.17157 14.8284V14.8284C3.36056 14.0783 1.92172 12.6394 1.17157 10.8284V10.8284C0.421427 9.01742 0.421427 6.98258 1.17157 5.17157V5.17157C1.92172 3.36056 3.36056 1.92172 5.17157 1.17157V1.17157Z" stroke="white"/>
<path d="M10.5483 12.1491L11.0103 12.3405L10.5483 12.1491ZM10.5483 3.85239L11.0103 3.66105L10.5483 3.85239ZM8.47736 15.3765L8.50964 15.8755C8.63722 15.8672 8.75679 15.8104 8.84377 15.7167L8.47736 15.3765ZM7.52331 15.3765L7.15693 15.7168C7.24392 15.8105 7.36349 15.8673 7.49107 15.8755L7.52331 15.3765ZM5.45163 12.1484L4.98969 12.3397L5.45163 12.1484ZM5.45162 3.85167L5.91356 4.04302L5.45162 3.85167ZM7.5216 0.625358L7.48925 0.126406C7.36167 0.134678 7.24211 0.191502 7.15514 0.285199L7.5216 0.625358ZM8.47766 0.625307L8.84408 0.285113C8.7571 0.191423 8.63754 0.134611 8.50996 0.126352L8.47766 0.625307ZM11.0103 12.3405C12.1612 9.56179 12.1612 6.43971 11.0103 3.66105L10.0864 4.04373C11.1359 6.57737 11.1359 9.42413 10.0864 11.9578L11.0103 12.3405ZM8.84377 15.7167C9.7523 14.7382 10.4895 13.5978 11.0103 12.3405L10.0864 11.9578C9.61152 13.1042 8.93937 14.1441 8.11095 15.0363L8.84377 15.7167ZM7.49107 15.8755C7.83023 15.8974 8.17048 15.8974 8.50964 15.8755L8.44508 14.8776C8.14889 14.8967 7.85174 14.8967 7.55555 14.8776L7.49107 15.8755ZM4.98969 12.3397C5.51063 13.5974 6.24807 14.7381 7.15693 15.7168L7.88969 15.0363C7.06096 14.1439 6.38858 13.1038 5.91357 11.9571L4.98969 12.3397ZM4.98969 3.66033C3.83872 6.439 3.83872 9.56107 4.98969 12.3397L5.91357 11.9571C4.8641 9.42342 4.8641 6.57665 5.91356 4.04302L4.98969 3.66033ZM7.15514 0.285199C6.2471 1.26344 5.51029 2.40349 4.98969 3.66033L5.91356 4.04302C6.38827 2.89698 7.06008 1.85751 7.88806 0.965517L7.15514 0.285199ZM8.50996 0.126352C8.17008 0.104349 7.82912 0.104367 7.48925 0.126406L7.55395 1.12431C7.85077 1.10506 8.14854 1.10505 8.44536 1.12426L8.50996 0.126352ZM11.0103 3.66105C10.4895 2.40386 9.75246 1.26353 8.84408 0.285113L8.11123 0.965502C8.93952 1.85766 9.61157 2.89739 10.0864 4.04373L11.0103 3.66105Z" fill="white"/>
<path d="M1.00928 10.9L14.9904 10.9L14.9904 9.90004L1.00928 9.90004L1.00928 10.9ZM1.1066 5.83337L14.893 5.83337V4.83337L1.1066 4.83337V5.83337Z" fill="white"/>
</g>
<defs>
<clipPath id="clip0_92_387">
<rect width="16" height="16" fill="white"/>
</clipPath>
</defs>
</svg>
