<svg width="41" height="34" viewBox="0 0 41 34" fill="none" xmlns="http://www.w3.org/2000/svg">
<path d="M34.4097 12.9091L35.6597 12.9091C35.6597 12.5294 35.4871 12.1702 35.1906 11.933L34.4097 12.9091ZM20.7733 2L21.5542 1.02391C21.0977 0.658695 20.449 0.658695 19.9925 1.02391L20.7733 2ZM34.4097 32V33.25C35.1 33.25 35.6597 32.6904 35.6597 32H34.4097ZM7.13696 32H5.88696C5.88696 32.6904 6.44661 33.25 7.13696 33.25V32ZM7.13696 12.9091L6.35609 11.933C6.05958 12.1702 5.88696 12.5294 5.88696 12.9091H7.13696ZM24.8642 15.6364H26.1142C26.1142 14.946 25.5546 14.3864 24.8642 14.3864V15.6364ZM24.8642 23.8182V25.0682C25.5546 25.0682 26.1142 24.5085 26.1142 23.8182H24.8642ZM16.6824 15.6364V14.3864C15.9921 14.3864 15.4324 14.946 15.4324 15.6364H16.6824ZM16.6824 23.8182H15.4324C15.4324 24.5085 15.9921 25.0682 16.6824 25.0682V23.8182ZM35.1906 11.933L21.5542 1.02391L19.9925 2.97609L33.6288 13.8852L35.1906 11.933ZM35.6597 32V12.9091L33.1597 12.9091V32H35.6597ZM7.13696 33.25H34.4097V30.75L7.13696 30.75L7.13696 33.25ZM5.88696 12.9091L5.88696 32H8.38696L8.38696 12.9091H5.88696ZM19.9925 1.02391L6.35609 11.933L7.91783 13.8852L21.5542 2.97609L19.9925 1.02391ZM23.6142 15.6364V23.8182H26.1142V15.6364L23.6142 15.6364ZM16.6824 16.8864L24.8642 16.8864V14.3864L16.6824 14.3864V16.8864ZM17.9324 23.8182L17.9324 15.6364H15.4324L15.4324 23.8182H17.9324ZM24.8642 22.5682L16.6824 22.5682V25.0682L24.8642 25.0682V22.5682Z" fill="white"/>
<path d="M39.5232 17L37.4777 15.3636L20.7732 2L4.06865 15.3636L2.02319 17" stroke="white" stroke-width="2.5" stroke-linecap="round" stroke-linejoin="round"/>
<path d="M30.9593 10.1488L30.1785 11.1249C30.5033 11.3848 30.9361 11.466 31.3331 11.3416C31.7301 11.2172 32.0392 10.9035 32.1576 10.5047L30.9593 10.1488ZM26.9097 6.9091H25.6597C25.6597 7.28883 25.8323 7.64797 26.1288 7.88518L26.9097 6.9091ZM29.7506 9.86364C29.7506 9.84095 29.754 9.81685 29.7611 9.79294L32.1576 10.5047C32.2184 10.3 32.2506 10.0845 32.2506 9.86364H29.7506ZM29.7506 3.68182V9.86364H32.2506V3.68182L29.7506 3.68182ZM30.0006 3.93182C29.8625 3.93182 29.7506 3.81989 29.7506 3.68182L32.2506 3.68182C32.2506 2.43918 31.2432 1.43182 30.0006 1.43182V3.93182ZM27.9097 3.93182L30.0006 3.93182V1.43182L27.9097 1.43182V3.93182ZM28.1597 3.68182C28.1597 3.8199 28.0477 3.93182 27.9097 3.93182V1.43182C26.667 1.43182 25.6597 2.43918 25.6597 3.68182H28.1597ZM28.1597 6.9091V3.68182H25.6597V6.9091H28.1597ZM26.1288 7.88518L30.1785 11.1249L31.7402 9.17274L27.6905 5.93301L26.1288 7.88518Z" fill="white"/>
</svg>
