<svg width="34" height="34" viewBox="0 0 34 34" fill="none" xmlns="http://www.w3.org/2000/svg">
<rect x="2" y="2" width="30" height="30" rx="6" stroke="#20475F" stroke-width="2.5" stroke-linecap="round" stroke-linejoin="round"/>
<path d="M2.5127 26.9778L3.43414 27.8224L2.5127 26.9778ZM13.6462 16.4405L12.7247 17.2851L13.6462 16.4405ZM12.1719 16.4405L13.0933 17.2851L12.1719 16.4405ZM24.4084 26.6369L23.5245 25.753L24.4084 26.6369ZM22.9641 26.6055L22.0427 27.4502L22.9641 26.6055ZM27.9343 24.5252L28.8182 23.6414L27.9343 24.5252ZM31.3203 28.7764L30.2126 28.1972L31.3203 28.7764ZM31.1287 27.7197L32.0126 26.8358L31.1287 27.7197ZM7.99991 33.25H19.0454V30.75L7.99991 30.75V33.25ZM19.0454 33.25H25.9999V30.75H19.0454V33.25ZM30.2126 28.1972C29.4177 29.7171 27.8284 30.75 25.9999 30.75V33.25C28.7952 33.25 31.219 31.6676 32.428 29.3556L30.2126 28.1972ZM32.0126 26.8358L28.8182 23.6414L27.0504 25.4091L30.2449 28.6036L32.0126 26.8358ZM25.6362 23.6414L23.5245 25.753L25.2923 27.5208L27.404 25.4091L25.6362 23.6414ZM23.8856 25.7609L14.5676 15.5958L12.7247 17.2851L22.0427 27.4502L23.8856 25.7609ZM11.2504 15.5958L1.59125 26.1331L3.43414 27.8224L13.0933 17.2851L11.2504 15.5958ZM7.99991 30.75C5.89671 30.75 4.10971 29.3822 3.48607 27.4843L1.111 28.2647C2.06176 31.1581 4.78492 33.25 7.99991 33.25V30.75ZM1.59125 26.1331C1.10581 26.6627 0.847998 27.4643 1.111 28.2647L3.48607 27.4843C3.54297 27.6574 3.47346 27.7795 3.43414 27.8224L1.59125 26.1331ZM14.5676 15.5958C13.6759 14.623 12.1422 14.623 11.2504 15.5958L13.0933 17.2851C12.9942 17.3932 12.8238 17.3932 12.7247 17.2851L14.5676 15.5958ZM23.5245 25.753C23.6252 25.6524 23.7894 25.656 23.8856 25.7609L22.0427 27.4502C22.9083 28.3945 24.3865 28.4266 25.2923 27.5208L23.5245 25.753ZM28.8182 23.6414C27.9395 22.7627 26.5149 22.7627 25.6362 23.6414L27.404 25.4091C27.3063 25.5068 27.1481 25.5068 27.0504 25.4091L28.8182 23.6414ZM32.428 29.3556C32.9017 28.4497 32.621 27.4441 32.0126 26.8358L30.2449 28.6036C30.2144 28.5731 30.1846 28.5261 30.1715 28.4586C30.1575 28.3863 30.1641 28.2899 30.2126 28.1972L32.428 29.3556Z" fill="#20475F"/>
<path d="M20.6828 7.11367C21.7789 6.4808 23.1295 6.4808 24.2256 7.11367V7.11367C25.3218 7.74654 25.997 8.91612 25.997 10.1819V10.1819C25.997 11.4476 25.3218 12.6172 24.2256 13.25V13.25C23.1294 13.8829 21.7789 13.8829 20.6828 13.25V13.25C19.5866 12.6172 18.9114 11.4476 18.9114 10.1819V10.1819C18.9114 8.91612 19.5866 7.74654 20.6828 7.11367V7.11367Z" stroke="#20475F" stroke-width="2.5" stroke-linecap="round" stroke-linejoin="round"/>
</svg>
