<svg width="33" height="32" viewBox="0 0 33 32" fill="none" xmlns="http://www.w3.org/2000/svg">
<path d="M28.4002 5.70262V5.80262H28.5002C30.9329 5.80262 32.9002 7.72261 32.9002 10.0855V27.6171C32.9002 29.9801 30.9329 31.9 28.5002 31.9H4.50024C2.06769 31.9 0.100244 29.9801 0.100244 27.6171V9.41271C0.100244 7.47126 1.44248 5.77047 3.37369 5.27257L22.8737 0.245125C25.6687 -0.475466 28.4002 1.57769 28.4002 4.38527V5.70262ZM13.0037 5.60582L13.0286 5.80265L25.5002 5.80269L25.6002 5.80269V5.70269V4.38527C25.6002 3.35767 24.6029 2.61532 23.5914 2.8761L13.0037 5.60582ZM30.1002 23.2344V23.1344H30.0002H25.5002C23.0676 23.1344 21.1002 21.2143 21.1002 18.8515C21.1002 16.4885 23.0676 14.5686 25.5002 14.5686H30.0002H30.1002V14.4686V10.0855C30.1002 9.22097 29.3814 8.52458 28.5002 8.52455H4.50024C3.6191 8.52455 2.90024 9.22096 2.90024 10.0855V27.6171C2.90024 28.4817 3.6191 29.1781 4.50024 29.1781H28.5002C29.3814 29.1781 30.1002 28.4817 30.1002 27.6171V23.2344ZM30.1002 17.3905V17.2905H30.0002H25.5002C24.6191 17.2905 23.9002 17.9869 23.9002 18.8515C23.9002 19.7159 24.6191 20.4124 25.5002 20.4124H30.0002H30.1002V20.3124V17.3905Z" fill="white" stroke="white" stroke-width="0.2"/>
</svg>
