<svg width="48" height="34" viewBox="0 0 48 34" fill="none" xmlns="http://www.w3.org/2000/svg">
<path d="M2 8.70455C2 8.01419 2.55964 7.45455 3.25 7.45455H7.18766C11.5027 7.45455 15.7997 6.89596 19.9713 5.79271L28.0287 3.66184C32.2003 2.55859 36.4973 2 40.8123 2H44.75C45.4404 2 46 2.55964 46 3.25V25.2955C46 25.9858 45.4404 26.5455 44.75 26.5455H40.8123C36.4973 26.5455 32.2003 27.104 28.0287 28.2073L19.9713 30.3382C15.7997 31.4414 11.5027 32 7.18766 32H3.25C2.55964 32 2 31.4404 2 30.75V8.70455Z" stroke="#20475F" stroke-width="2.5" stroke-linecap="round" stroke-linejoin="round"/>
<path d="M2 14.2347H0.75C0.75 14.8716 1.22886 15.4067 1.86186 15.477L2 14.2347ZM8.834 7.42743L10.0755 7.28207C9.99995 6.6366 9.44238 6.15671 8.79285 6.17811L8.834 7.42743ZM8.84013 31.9727L8.88144 33.222C9.5038 33.2014 10.0161 32.7259 10.0829 32.1068L8.84013 31.9727ZM2 25.2199L1.86186 23.9775C1.22886 24.0479 0.75 24.583 0.75 25.2199H2ZM46 19.7653H47.25C47.25 19.1283 46.7711 18.5932 46.138 18.5229L46 19.7653ZM39.1665 26.5725L37.925 26.7179C38.0005 27.3634 38.5581 27.8433 39.2076 27.8219L39.1665 26.5725ZM46 8.78021L46.138 10.0226C46.7711 9.95223 47.25 9.41715 47.25 8.78021H46ZM39.1604 2.0273L39.1191 0.77798C38.4967 0.798554 37.9844 1.27407 37.9176 1.89318L39.1604 2.0273ZM3.25 14.2347V8.70455H0.75V14.2347H3.25ZM3.25 8.70455V8.70455V6.20455C1.86929 6.20455 0.75 7.32383 0.75 8.70455H3.25ZM3.25 8.70455H7.18766V6.20455H3.25V8.70455ZM7.18766 8.70455C7.75054 8.70455 8.31312 8.69527 8.87516 8.67676L8.79285 6.17811C8.25821 6.19572 7.72308 6.20455 7.18766 6.20455V8.70455ZM10.1252 8.13636C10.1252 7.84786 10.1084 7.56277 10.0755 7.28207L7.59249 7.57279C7.61409 7.7573 7.62525 7.94532 7.62525 8.13636H10.1252ZM2.68775 15.5227C6.75359 15.5227 10.1252 12.2292 10.1252 8.13636H7.62525C7.62525 10.8216 5.39994 13.0227 2.68775 13.0227V15.5227ZM1.86186 15.477C2.13355 15.5072 2.40916 15.5227 2.68775 15.5227V13.0227C2.50182 13.0227 2.31845 13.0124 2.13814 12.9924L1.86186 15.477ZM8.79882 30.7234C8.2622 30.7411 7.72507 30.75 7.18766 30.75V33.25C7.75263 33.25 8.3173 33.2407 8.88144 33.222L8.79882 30.7234ZM7.18766 30.75H3.25V33.25H7.18766V30.75ZM3.25 30.75H3.25H0.75C0.75 32.1307 1.86929 33.25 3.25 33.25V30.75ZM3.25 30.75V25.2199H0.75V30.75H3.25ZM2.13814 26.4622C2.31845 26.4422 2.50182 26.4318 2.68775 26.4318V23.9318C2.40916 23.9318 2.13355 23.9473 1.86186 23.9775L2.13814 26.4622ZM2.68775 26.4318C5.39994 26.4318 7.62525 28.633 7.62525 31.3182H10.1252C10.1252 27.2254 6.75359 23.9318 2.68775 23.9318V26.4318ZM7.62525 31.3182C7.62525 31.4944 7.61576 31.6679 7.59735 31.8386L10.0829 32.1068C10.1109 31.8473 10.1252 31.5842 10.1252 31.3182H7.62525ZM44.75 19.7653V25.2955H47.25V19.7653H44.75ZM44.75 25.2955V25.2955V27.7955C46.1307 27.7955 47.25 26.6762 47.25 25.2955H44.75ZM44.75 25.2955H40.8123V27.7955H44.75V25.2955ZM40.8123 25.2955C40.2496 25.2955 39.6872 25.3047 39.1253 25.3232L39.2076 27.8219C39.7421 27.8043 40.2771 27.7955 40.8123 27.7955V25.2955ZM40.408 26.4272C40.3864 26.2427 40.3752 26.0547 40.3752 25.8636H37.8752C37.8752 26.1521 37.8921 26.4372 37.925 26.7179L40.408 26.4272ZM40.3752 25.8636C40.3752 23.1784 42.6005 20.9773 45.3127 20.9773V18.4773C41.2469 18.4773 37.8752 21.7708 37.8752 25.8636H40.3752ZM45.3127 20.9773C45.4985 20.9773 45.6818 20.9876 45.862 21.0076L46.138 18.5229C45.8665 18.4927 45.5911 18.4773 45.3127 18.4773V20.9773ZM45.862 7.53785C45.6818 7.55787 45.4985 7.56819 45.3127 7.56819V10.0682C45.5911 10.0682 45.8665 10.0527 46.138 10.0226L45.862 7.53785ZM45.3127 7.56819C42.6005 7.56819 40.3752 5.36704 40.3752 2.68182H37.8752C37.8752 6.77465 41.2469 10.0682 45.3127 10.0682V7.56819ZM40.3752 2.68182C40.3752 2.50566 40.3847 2.33206 40.4031 2.16142L37.9176 1.89318C37.8896 2.15264 37.8752 2.41578 37.8752 2.68182H40.3752ZM39.2017 3.27662C39.7381 3.25888 40.2751 3.25 40.8123 3.25V0.75C40.2475 0.75 39.683 0.759337 39.1191 0.77798L39.2017 3.27662ZM40.8123 3.25H44.75V0.75H40.8123V3.25ZM44.75 3.25H47.25C47.25 1.86929 46.1307 0.75 44.75 0.75V3.25ZM44.75 3.25V8.78021H47.25V3.25H44.75Z" fill="#20475F"/>
<path d="M20.9066 11.3007C22.8265 9.83488 25.4899 9.83488 27.4098 11.3007V11.3007C28.7376 12.3144 29.5167 13.8893 29.5167 15.5599V18.4403C29.5167 20.1108 28.7376 21.6857 27.4098 22.6995V22.6995C25.4899 24.1652 22.8265 24.1652 20.9066 22.6995V22.6995C19.5788 21.6857 18.7997 20.1108 18.7997 18.4403V15.5599C18.7997 13.8893 19.5788 12.3144 20.9066 11.3007V11.3007Z" stroke="#20475F" stroke-width="2.5" stroke-linecap="round" stroke-linejoin="round"/>
<path d="M9.85362 17.8275C10.4936 17.3389 11.3814 17.3389 12.0214 17.8275V17.8275C12.464 18.1654 12.7237 18.6904 12.7237 19.2472V20.2073C12.7237 20.7642 12.464 21.2892 12.0214 21.6271V21.6271C11.3814 22.1157 10.4936 22.1157 9.85362 21.6271V21.6271C9.41102 21.2892 9.15132 20.7642 9.15132 20.2073V19.2472C9.15132 18.6904 9.41102 18.1654 9.85362 17.8275V17.8275Z" stroke="#20475F" stroke-width="2.5" stroke-linecap="round" stroke-linejoin="round"/>
<path d="M35.9786 12.3729C36.6186 11.8843 37.5064 11.8843 38.1464 12.3729V12.3729C38.589 12.7108 38.8487 13.2358 38.8487 13.7926V14.7528C38.8487 15.3096 38.589 15.8346 38.1464 16.1725V16.1725C37.5064 16.6611 36.6186 16.6611 35.9786 16.1725V16.1725C35.536 15.8346 35.2763 15.3096 35.2763 14.7528V13.7926C35.2763 13.2358 35.536 12.7108 35.9786 12.3729V12.3729Z" stroke="#20475F" stroke-width="2.5" stroke-linecap="round" stroke-linejoin="round"/>
</svg>
