<svg width="29" height="32" viewBox="0 0 29 32" fill="none" xmlns="http://www.w3.org/2000/svg">
<path d="M3.79483 29.1162C3.30667 29.6043 3.30667 30.3958 3.79483 30.884C4.28298 31.3721 5.07444 31.3721 5.56259 30.884L3.79483 29.1162ZM9.84831 26.5982C10.3365 26.1101 10.3365 25.3186 9.84831 24.8305C9.36015 24.3423 8.5687 24.3423 8.08054 24.8305L9.84831 26.5982ZM24.1518 30.884C24.6399 31.3721 25.4314 31.3721 25.9195 30.884C26.4077 30.3958 26.4077 29.6043 25.9195 29.1162L24.1518 30.884ZM21.6338 24.8305C21.1457 24.3423 20.3542 24.3423 19.866 24.8305C19.3779 25.3186 19.3779 26.1101 19.866 26.5982L21.6338 24.8305ZM5.56259 30.884L9.84831 26.5982L8.08054 24.8305L3.79483 29.1162L5.56259 30.884ZM25.9195 29.1162L21.6338 24.8305L19.866 26.5982L24.1518 30.884L25.9195 29.1162Z" fill="#20475F"/>
<path d="M3.25 19.2955V7.70216H0.75V19.2955H3.25ZM8.20216 2.75H21.5128V0.25H8.20216V2.75ZM26.4643 7.70152V19.2961H28.9643V7.70152H26.4643ZM21.5128 24.2476H8.20216V26.7476H21.5128V24.2476ZM8.20216 24.2476C7.09524 24.2476 6.02024 23.8768 5.14877 23.1943L3.60733 25.1625C4.91874 26.1896 6.53644 26.7476 8.20216 26.7476V24.2476ZM24.5658 23.1944C23.6944 23.8768 22.6195 24.2476 21.5128 24.2476V26.7476C23.1783 26.7476 24.7959 26.1896 26.1072 25.1627L24.5658 23.1944ZM26.4643 19.2961C26.4643 20.8183 25.7642 22.2559 24.5658 23.1944L26.1072 25.1627C27.9107 23.7503 28.9643 21.5868 28.9643 19.2961H26.4643ZM24.5658 3.80322C25.7642 4.74176 26.4643 6.17934 26.4643 7.70152H28.9643C28.9643 5.4108 27.9107 3.24738 26.1072 1.83498L24.5658 3.80322ZM21.5128 2.75C22.6195 2.75 23.6944 3.1208 24.5658 3.80322L26.1072 1.83498C24.7959 0.808022 23.1783 0.25 21.5128 0.25V2.75ZM5.14877 3.80335C6.02024 3.12085 7.09524 2.75 8.20216 2.75V0.25C6.53644 0.25 4.91874 0.80807 3.60733 1.83512L5.14877 3.80335ZM3.25 7.70216C3.25 6.17978 3.95021 4.74201 5.14877 3.80335L3.60733 1.83512C1.8037 3.24764 0.75 5.41124 0.75 7.70216H3.25ZM0.75 19.2955C0.75 21.5864 1.8037 23.75 3.60733 25.1625L5.14877 23.1943C3.95021 22.2556 3.25 20.8179 3.25 19.2955H0.75Z" fill="#20475F"/>
<path d="M2 6.42859H27.7143V15H2V6.42859Z" stroke="#20475F" stroke-width="2.5" stroke-linecap="round" stroke-linejoin="round"/>
<path d="M14.8574 15V6.42859" stroke="#20475F" stroke-width="2.5" stroke-linecap="round" stroke-linejoin="round"/>
<rect x="6.28613" y="18.75" width="3.21429" height="3.21428" rx="1.60714" stroke="#20475F" stroke-width="2.5" stroke-linecap="round" stroke-linejoin="round"/>
<rect x="20.2148" y="18.75" width="3.21428" height="3.21428" rx="1.60714" stroke="#20475F" stroke-width="2.5" stroke-linecap="round" stroke-linejoin="round"/>
</svg>
