<svg width="56" height="56" viewBox="0 0 56 56" fill="none" xmlns="http://www.w3.org/2000/svg">
<path d="M28 2L29.5 1.99421C29.4968 1.16805 28.8262 0.5 28 0.5C27.1738 0.5 26.5032 1.16805 26.5 1.99421L28 2ZM28.0309 10.0126L27.4569 11.3984C27.9207 11.5905 28.4499 11.5379 28.8667 11.2582C29.2836 10.9785 29.5329 10.5088 29.5309 10.0068L28.0309 10.0126ZM27.969 10.013L26.4691 10.0073C26.4671 10.5093 26.7164 10.9789 27.1333 11.2586C27.5502 11.5383 28.0793 11.591 28.5431 11.3989L27.969 10.013ZM28.0005 10L28.5746 8.61418C28.207 8.46194 27.7941 8.46194 27.4265 8.61419L28.0005 10ZM40.6971 15.2591L39.6406 14.1943C39.2842 14.5479 39.1284 15.0564 39.2254 15.5489C39.3224 16.0415 39.6593 16.4528 40.1231 16.6449L40.6971 15.2591ZM40.7285 15.2721L42.1143 14.6981C41.9621 14.3305 41.67 14.0385 41.3025 13.8862L40.7285 15.2721ZM40.7411 15.3026L39.3553 15.8766C39.5474 16.3404 39.9588 16.6774 40.4513 16.7744C40.9439 16.8714 41.4523 16.7155 41.8059 16.3592L40.7411 15.3026ZM46.3848 9.61522L47.4495 10.6718C48.0315 10.0853 48.0296 9.13875 47.4454 8.55456C46.8613 7.97038 45.9147 7.96855 45.3282 8.55047L46.3848 9.61522ZM45.9877 27.9691L45.9935 26.4691C45.4915 26.4671 45.0219 26.7164 44.7422 27.1333C44.4624 27.5501 44.4098 28.0792 44.6019 28.543L45.9877 27.9691ZM46.0005 28L47.3864 28.574C47.5386 28.2065 47.5386 27.7935 47.3864 27.426L46.0005 28ZM45.9877 28.0309L44.6019 27.457C44.4098 27.9208 44.4624 28.4499 44.7422 28.8667C45.0219 29.2836 45.4915 29.5329 45.9935 29.5309L45.9877 28.0309ZM54 28L54.0058 29.5C54.832 29.4968 55.5 28.8262 55.5 28C55.5 27.1738 54.832 26.5032 54.0058 26.5L54 28ZM40.7411 40.6974L41.8059 39.6408C41.4523 39.2845 40.9439 39.1286 40.4513 39.2256C39.9588 39.3226 39.5474 39.6596 39.3553 40.1234L40.7411 40.6974ZM40.7285 40.7279L41.3025 42.1137C41.6701 41.9615 41.9621 41.6695 42.1143 41.3019L40.7285 40.7279ZM40.6971 40.7409L40.1231 39.3551C39.6593 39.5472 39.3224 39.9586 39.2254 40.4511C39.1284 40.9437 39.2842 41.4521 39.6406 41.8057L40.6971 40.7409ZM46.3848 46.3848L45.3282 47.4495C45.9147 48.0315 46.8613 48.0296 47.4454 47.4454C48.0296 46.8613 48.0315 45.9147 47.4495 45.3282L46.3848 46.3848ZM28.0309 45.9874L29.5309 45.9932C29.5329 45.4912 29.2836 45.0215 28.8667 44.7418C28.4499 44.4621 27.9207 44.4095 27.4569 44.6016L28.0309 45.9874ZM28.0005 46L27.4265 47.3858C27.7941 47.5381 28.207 47.5381 28.5746 47.3858L28.0005 46ZM27.969 45.987L28.5431 44.6011C28.0793 44.409 27.5501 44.4617 27.1333 44.7414C26.7164 45.0211 26.4671 45.4908 26.4691 45.9927L27.969 45.987ZM28 54L26.5 54.0058C26.5032 54.832 27.1738 55.5 28 55.5C28.8262 55.5 29.4968 54.832 29.5 54.0058L28 54ZM15.3032 40.7406L16.3597 41.8053C16.7161 41.4517 16.8719 40.9433 16.7749 40.4508C16.678 39.9583 16.341 39.5469 15.8772 39.3548L15.3032 40.7406ZM15.2726 40.7279L13.8868 41.3019C14.039 41.6695 14.331 41.9615 14.6986 42.1137L15.2726 40.7279ZM15.2596 40.6966L16.6455 40.1226C16.4534 39.6588 16.042 39.3218 15.5494 39.2248C15.0569 39.1279 14.5485 39.2837 14.1949 39.64L15.2596 40.6966ZM9.61522 46.3848L8.55047 45.3282C7.96855 45.9147 7.97038 46.8613 8.55456 47.4454C9.13875 48.0296 10.0853 48.0315 10.6718 47.4495L9.61522 46.3848ZM10.0134 28.031L10.0076 29.5309C10.5096 29.5329 10.9792 29.2836 11.259 28.8667C11.5387 28.4499 11.5913 27.9207 11.3992 27.457L10.0134 28.031ZM10.0005 28L8.61472 27.426C8.46249 27.7935 8.46249 28.2065 8.61472 28.574L10.0005 28ZM10.0134 27.969L11.3992 28.543C11.5913 28.0793 11.5387 27.5501 11.259 27.1333C10.9792 26.7164 10.5096 26.4671 10.0076 26.4691L10.0134 27.969ZM2 28L1.99421 26.5C1.16805 26.5032 0.5 27.1738 0.5 28C0.5 28.8262 1.16805 29.4968 1.99421 29.5L2 28ZM15.2596 15.3034L14.1949 16.36C14.5485 16.7163 15.0569 16.8721 15.5494 16.7752C16.042 16.6782 16.4534 16.3412 16.6455 15.8774L15.2596 15.3034ZM15.2726 15.2721L14.6986 13.8863C14.3311 14.0385 14.039 14.3305 13.8868 14.698L15.2726 15.2721ZM15.3032 15.2594L15.8772 16.6452C16.341 16.4531 16.6779 16.0418 16.7749 15.5492C16.8719 15.0567 16.7161 14.5483 16.3597 14.1947L15.3032 15.2594ZM9.61522 9.61522L10.6718 8.55047C10.0853 7.96855 9.13875 7.97038 8.55456 8.55456C7.97038 9.13875 7.96855 10.0853 8.55047 10.6718L9.61522 9.61522ZM26.5 2.00579L26.531 10.0184L29.5309 10.0068L29.5 1.99421L26.5 2.00579ZM29.469 10.0188L29.5 2.00579L26.5 1.99421L26.4691 10.0073L29.469 10.0188ZM28.5431 11.3989L28.5746 11.3858L27.4265 8.61419L27.395 8.62723L28.5431 11.3989ZM27.4265 11.3858L27.4569 11.3984L28.605 8.62677L28.5746 8.61418L27.4265 11.3858ZM40.1231 16.6449L40.1545 16.6579L41.3025 13.8862L41.2711 13.8733L40.1231 16.6449ZM39.3426 15.846L39.3553 15.8766L42.127 14.7287L42.1143 14.6981L39.3426 15.846ZM45.32 8.55867L39.6764 14.2461L41.8059 16.3592L47.4495 10.6718L45.32 8.55867ZM41.7537 16.3238L47.4413 10.68L45.3282 8.55047L39.6406 14.1943L41.7537 16.3238ZM44.6019 28.543L44.6147 28.574L47.3864 27.426L47.3736 27.3951L44.6019 28.543ZM44.6147 27.426L44.6019 27.457L47.3736 28.6049L47.3864 28.574L44.6147 27.426ZM53.9942 26.5L45.9819 26.531L45.9935 29.5309L54.0058 29.5L53.9942 26.5ZM45.9819 29.469L53.9942 29.5L54.0058 26.5L45.9935 26.4691L45.9819 29.469ZM39.3553 40.1234L39.3426 40.1539L42.1143 41.3019L42.127 41.2713L39.3553 40.1234ZM40.1544 39.3421L40.1231 39.3551L41.2712 42.1267L41.3025 42.1137L40.1544 39.3421ZM47.4413 45.32L41.7537 39.6762L39.6406 41.8057L45.3282 47.4495L47.4413 45.32ZM39.6764 41.7539L45.32 47.4413L47.4495 45.3282L41.8059 39.6408L39.6764 41.7539ZM27.4569 44.6016L27.4265 44.6142L28.5746 47.3858L28.605 47.3732L27.4569 44.6016ZM28.5745 44.6142L28.5431 44.6011L27.395 47.3728L27.4265 47.3858L28.5745 44.6142ZM29.5 53.9942L29.469 45.9812L26.4691 45.9927L26.5 54.0058L29.5 53.9942ZM26.531 45.9816L26.5 53.9942L29.5 54.0058L29.5309 45.9932L26.531 45.9816ZM15.8772 39.3548L15.8467 39.3421L14.6986 42.1137L14.7291 42.1264L15.8772 39.3548ZM16.6584 40.1539L16.6455 40.1226L13.8738 41.2706L13.8868 41.3019L16.6584 40.1539ZM10.68 47.4413L16.3244 41.7531L14.1949 39.64L8.55047 45.3282L10.68 47.4413ZM14.2466 39.6758L8.55867 45.32L10.6718 47.4495L16.3597 41.8053L14.2466 39.6758ZM11.3992 27.457L11.3864 27.426L8.61472 28.574L8.62754 28.605L11.3992 27.457ZM11.3864 28.574L11.3992 28.543L8.62754 27.395L8.61472 27.426L11.3864 28.574ZM2.00579 29.5L10.0192 29.469L10.0076 26.4691L1.99421 26.5L2.00579 29.5ZM10.0192 26.531L2.00579 26.5L1.99421 29.5L10.0076 29.5309L10.0192 26.531ZM16.6455 15.8774L16.6584 15.8461L13.8868 14.698L13.8738 14.7294L16.6455 15.8774ZM15.8466 16.6579L15.8772 16.6452L14.7292 13.8736L14.6986 13.8863L15.8466 16.6579ZM8.55867 10.68L14.2466 16.3242L16.3597 14.1947L10.6718 8.55047L8.55867 10.68ZM16.3244 14.2469L10.68 8.55867L8.55047 10.6718L14.1949 16.36L16.3244 14.2469Z" fill="white"/>
<path d="M23.7574 17.7574C26.4739 16.6321 29.5261 16.6321 32.2426 17.7574V17.7574C34.9592 18.8826 37.1174 21.0408 38.2426 23.7574V23.7574C39.3679 26.4739 39.3679 29.5261 38.2426 32.2426V32.2426C37.1174 34.9592 34.9592 37.1174 32.2426 38.2426V38.2426C29.5261 39.3679 26.4739 39.3679 23.7574 38.2426V38.2426C21.0408 37.1174 18.8826 34.9592 17.7574 32.2426V32.2426C16.6321 29.5261 16.6321 26.4739 17.7574 23.7574V23.7574C18.8826 21.0408 21.0408 18.8826 23.7574 17.7574V17.7574Z" stroke="white" stroke-width="3" stroke-linecap="square" stroke-linejoin="round"/>
</svg>
