<svg width="27" height="34" viewBox="0 0 27 34" fill="none" xmlns="http://www.w3.org/2000/svg">
<path d="M12.9702 22.9571L11.7687 22.6124L11.7687 22.6124L12.9702 22.9571ZM14.8927 22.9572L13.6911 23.3019V23.3019L14.8927 22.9572ZM10.8548 30.3308L12.0563 30.6755L10.8548 30.3308ZM17.0081 30.3308L18.2096 29.9861V29.9861L17.0081 30.3308ZM15.1109 31.9236L14.6304 30.7696L15.1109 31.9236ZM11.6665 27.5016L10.465 27.1569L11.6665 27.5016ZM12.1196 31.7399L11.2784 32.6645L12.1196 31.7399ZM14.1717 23.3018C14.1622 23.3352 14.1292 23.3931 14.0678 23.4363C14.0154 23.4731 13.9664 23.4829 13.9314 23.4829C13.8965 23.4829 13.8475 23.4731 13.7951 23.4363C13.7337 23.3931 13.7007 23.3352 13.6911 23.3019L16.0942 22.6124C15.4709 20.4397 12.392 20.4397 11.7687 22.6124L14.1717 23.3018ZM13.58 25.3645L14.1717 23.3018L11.7687 22.6124L11.1769 24.6751L13.58 25.3645ZM12.0563 30.6755L12.868 27.8463L10.465 27.1569L9.65328 29.9861L12.0563 30.6755ZM11.816 30.3566C11.9823 30.3566 12.1022 30.5158 12.0563 30.6755L9.65328 29.9861C9.24078 31.424 10.3202 32.8566 11.816 32.8566V30.3566ZM12.7923 30.75C12.8564 30.75 12.9173 30.7757 12.9608 30.8153L11.2784 32.6645C11.6771 33.0273 12.2102 33.25 12.7923 33.25V30.75ZM14.7268 30.75H12.7923V33.25H14.7268V30.75ZM14.6304 30.7696C14.6617 30.7566 14.695 30.75 14.7268 30.75V33.25C15.0307 33.25 15.3236 33.1891 15.5914 33.0775L14.6304 30.7696ZM15.8065 30.6755C15.7607 30.5158 15.8806 30.3566 16.0468 30.3566V32.8566C17.5427 32.8566 18.6221 31.424 18.2096 29.9861L15.8065 30.6755ZM13.6911 23.3019L15.8065 30.6755L18.2096 29.9861L16.0942 22.6124L13.6911 23.3019ZM15.5914 33.0775C15.6975 33.0333 15.7993 32.9853 15.8695 32.9525C15.9489 32.9153 15.9988 32.8923 16.0437 32.8739C16.1353 32.8363 16.1177 32.8566 16.0468 32.8566V30.3566C15.6451 30.3566 15.3123 30.4718 15.095 30.5609C14.9854 30.6058 14.8825 30.6541 14.8095 30.6883C14.7272 30.7268 14.677 30.7502 14.6304 30.7696L15.5914 33.0775ZM10.5423 26.6066C10.5423 26.7927 10.5163 26.978 10.465 27.1569L12.868 27.8463C12.9837 27.4432 13.0423 27.0259 13.0423 26.6066H10.5423ZM11.816 32.8566C11.5115 32.8566 11.3296 32.7111 11.2784 32.6645L12.9608 30.8153C12.7406 30.615 12.349 30.3566 11.816 30.3566V32.8566ZM11.1769 24.6751C11.14 24.804 11.0825 24.8932 10.9053 25.254C10.7682 25.5331 10.5423 26.0174 10.5423 26.6066H13.0423C13.0423 26.6338 13.032 26.5948 13.1493 26.3561C13.1764 26.3009 13.2043 26.2461 13.2394 26.1771C13.2726 26.1118 13.3112 26.0354 13.3493 25.9556C13.4248 25.7976 13.5138 25.5952 13.58 25.3645L11.1769 24.6751Z" fill="#20475F"/>
<path d="M17.6762 10.8525V9.60246C17.1858 9.60246 16.7406 9.8893 16.5379 10.3359C16.3353 10.7826 16.4125 11.3065 16.7355 11.6756L17.6762 10.8525ZM21.6721 10.8525V12.1025C22.1644 12.1025 22.6108 11.8136 22.8124 11.3645C23.0141 10.9155 22.9334 10.3899 22.6064 10.022L21.6721 10.8525ZM24.1311 18.2295V19.4795C24.6216 19.4795 25.0668 19.1927 25.2694 18.746C25.4721 18.2994 25.3948 17.7755 25.0719 17.4064L24.1311 18.2295ZM19.0492 18.2295V16.9795C18.5569 16.9795 18.1105 17.2684 17.9089 17.7174C17.7072 18.1665 17.7879 18.6921 18.1149 19.06L19.0492 18.2295ZM25.6066 25.6066V26.8566C26.0988 26.8566 26.5452 26.5677 26.7469 26.1186C26.9485 25.6696 26.8678 25.144 26.5408 24.7761L25.6066 25.6066ZM2 25.6066L1.06574 24.7761C0.738712 25.144 0.658051 25.6696 0.8597 26.1186C1.06135 26.5677 1.50776 26.8566 2 26.8566V25.6066ZM8.55738 18.2295L9.49164 19.06C9.81867 18.6921 9.89933 18.1665 9.69768 17.7174C9.49603 17.2684 9.04962 16.9795 8.55738 16.9795V18.2295ZM3.47541 18.2295L2.53469 17.4064C2.21171 17.7755 2.13445 18.2994 2.33712 18.746C2.53979 19.1927 2.98494 19.4795 3.47541 19.4795V18.2295ZM9.93033 10.8525L10.871 11.6756C11.194 11.3065 11.2713 10.7826 11.0686 10.3359C10.8659 9.8893 10.4208 9.60246 9.93033 9.60246V10.8525ZM5.93443 10.8525L5.00016 10.022C4.67314 10.3899 4.59248 10.9155 4.79413 11.3645C4.99578 11.8136 5.44219 12.1025 5.93443 12.1025V10.8525ZM13.8033 2L14.7375 1.16955C14.5003 0.902685 14.1603 0.75 13.8033 0.75C13.4462 0.75 13.1062 0.902685 12.869 1.16955L13.8033 2ZM17.6762 12.1025H21.6721V9.60246H17.6762V12.1025ZM25.0719 17.4064L18.617 10.0293L16.7355 11.6756L23.1904 19.0526L25.0719 17.4064ZM19.0492 19.4795H24.1311V16.9795H19.0492V19.4795ZM18.1149 19.06L24.6723 26.437L26.5408 24.7761L19.9834 17.3991L18.1149 19.06ZM25.6066 24.3566H2V26.8566H25.6066V24.3566ZM2.93426 26.437L9.49164 19.06L7.62312 17.3991L1.06574 24.7761L2.93426 26.437ZM3.47541 19.4795H8.55738V16.9795H3.47541V19.4795ZM8.98961 10.0293L2.53469 17.4064L4.41613 19.0526L10.871 11.6756L8.98961 10.0293ZM5.93443 12.1025H9.93033V9.60246H5.93443V12.1025ZM12.869 1.16955L5.00016 10.022L6.86869 11.6829L14.7375 2.83045L12.869 1.16955ZM22.6064 10.022L14.7375 1.16955L12.869 2.83045L20.7379 11.6829L22.6064 10.022Z" fill="#20475F"/>
</svg>
