<svg width="34" height="34" viewBox="0 0 34 34" fill="none" xmlns="http://www.w3.org/2000/svg">
<path d="M20.9375 32L3.6875 32C2.75552 32 2 31.2445 2 30.3125C2 27.5244 3.73857 25.0321 6.35512 24.0693L7.01817 23.8253C10.4357 22.5677 14.1893 22.5677 17.6068 23.8253L18.2699 24.0693C20.8864 25.0321 22.625 27.5244 22.625 30.3125C22.625 31.2445 21.8695 32 20.9375 32Z" stroke="#20475F" stroke-width="2.5" stroke-linecap="square" stroke-linejoin="round"/>
<path d="M9.72101 18.8805C11.3509 19.7025 13.2741 19.7025 14.904 18.8805V18.8805C16.4524 18.0996 17.5661 16.662 17.9354 14.9676L18.0048 14.649C18.38 12.9274 17.9812 11.1278 16.9137 9.72598L16.8032 9.58086C15.7357 8.17891 14.0746 7.35596 12.3125 7.35596V7.35596C10.5504 7.35596 8.88933 8.17891 7.82178 9.58086L7.71127 9.72598C6.6438 11.1278 6.24496 12.9274 6.62016 14.649L6.68961 14.9676C7.05889 16.662 8.17259 18.0996 9.72101 18.8805V18.8805Z" stroke="#20475F" stroke-width="2.5" stroke-linecap="square" stroke-linejoin="round"/>
<path d="M23.1607 10.5111H24.4107C24.4107 10.0129 24.1149 9.56232 23.6578 9.36421L23.1607 10.5111ZM23.1607 13.25H21.9107C21.9107 13.7235 22.1782 14.1563 22.6017 14.368C23.0252 14.5798 23.5319 14.5341 23.9107 14.25L23.1607 13.25ZM26.375 10.8393V9.58929C26.1045 9.58929 25.8414 9.67701 25.625 9.83929L26.375 10.8393ZM22 6C22 4.48122 23.2312 3.25 24.75 3.25V0.75C21.8505 0.75 19.5 3.10051 19.5 6H22ZM22 6.83929V6H19.5V6.83929H22ZM23.6578 9.36421C22.68 8.94042 22 7.96786 22 6.83929H19.5C19.5 8.99951 20.8045 10.8522 22.6636 11.658L23.6578 9.36421ZM21.9107 10.5111V13.25H24.4107V10.5111H21.9107ZM23.9107 14.25L27.125 11.8393L25.625 9.83929L22.4107 12.25L23.9107 14.25ZM28 9.58929H26.375V12.0893H28V9.58929ZM30.75 6.83928C30.75 8.35807 29.5188 9.58929 28 9.58929V12.0893C30.8995 12.0893 33.25 9.73878 33.25 6.83928H30.75ZM30.75 6V6.83928H33.25V6H30.75ZM28 3.25C29.5188 3.25 30.75 4.48122 30.75 6H33.25C33.25 3.1005 30.8995 0.75 28 0.75V3.25ZM24.75 3.25H28V0.75L24.75 0.75V3.25Z" fill="#20475F"/>
</svg>
