<svg width="302" height="114" viewBox="0 0 302 114" fill="none" xmlns="http://www.w3.org/2000/svg">
<path d="M116.7 81.0999V34.8999H124.6V81.0999H116.7Z" fill="white"/>
<path d="M150.7 81.0999V64.4C150.7 61 149.4 59.5 146.6 59.5C144.1 59.5 141.5 61.0999 139.5 63.2999V81H132.3V54.2H139.2V58.7C142.4 55.5 145.7 53.7 149.2 53.7C155.1 53.7 157.9 57.4 157.9 62.7V81.0999H150.7Z" fill="white"/>
<path d="M168.5 48.9999C166.2 48.9999 164.3 47.0999 164.3 44.7999C164.3 42.4999 166.1 40.5999 168.5 40.5999C170.8 40.5999 172.7 42.4999 172.7 44.7999C172.7 47.1999 170.8 48.9999 168.5 48.9999ZM164.9 81.0999V54.1999H172.1V81.0999H164.9Z" fill="white"/>
<path d="M214.8 81.0999V64.1999C214.8 61.0999 213.7 59.5999 211 59.5999C208.7 59.5999 206.5 60.8999 204.3 63.2999V81H197.1V64.4C197.1 61.1 196 59.5 193.2 59.5C190.8 59.5 188.6 61.1 186.6 63.4V81H179.4V54.2H186.3V58.7C189.3 55.6 192.4 53.7 196 53.7C200.2 53.7 202.3 55.7 203.4 58.9C206.4 55.6 209.9 53.7 213.7 53.7C219.2 53.7 221.9 57.3 221.9 62.7V81.0999H214.8Z" fill="white"/>
<path d="M253.1 69.7999H234.4C235 73.5999 237.2 75.9999 242.8 75.9999C245.1 75.9999 248 75.3999 250.6 74.5999L251.5 80.0999C248.2 80.9999 244.8 81.5999 242.1 81.5999C232 81.5999 227.4 75.3999 227.4 67.6999C227.4 60.4999 232.3 53.5999 241 53.5999C249.1 53.5999 253.3 59.2999 253.3 66.4999C253.3 67.4999 253.3 68.7999 253.1 69.7999ZM246.9 65.2999C246.6 61.5999 244.4 59.1999 240.8 59.1999C237.3 59.1999 235 61.3999 234.5 65.2999H246.9Z" fill="white"/>
<path d="M275.3 81.0999L269.5 72.0999L263.5 81.0999H255.9L265.5 67.6999L255.9 54.0999H263.8L269.7 63.0999L275.6 54.0999H283.2L273.7 67.4999L283.2 80.9999H275.3V81.0999Z" fill="white"/>
<path d="M54.7001 106.7H46.8001C43.7001 106.7 41.1001 104.1 41.1001 101V50.5C41.1001 47.4 43.7001 44.8 46.8001 44.8H54.7001C57.8001 44.8 60.4001 47.4 60.4001 50.5V100.9C60.4001 104.1 57.8001 106.7 54.7001 106.7Z" fill="white"/>
<path d="M26.6 89H18.7C15.6 89 13 86.4 13 83.3V32.9C13 29.8 15.6 27.2 18.7 27.2H26.6C29.7 27.2 32.3 29.8 32.3 32.9V83.3C32.3 86.4 29.7 89 26.6 89Z" fill="white"/>
<path d="M82.9 89H75C71.9 89 69.3 86.4 69.3 83.3V32.9C69.3 29.8 71.9 27.2 75 27.2H82.9C86 27.2 88.6 29.8 88.6 32.9V83.3C88.6 86.4 86 89 82.9 89Z" fill="white"/>
<path d="M50.8001 33.4C56.1573 33.4 60.5001 29.0572 60.5001 23.7C60.5001 18.3428 56.1573 14 50.8001 14C45.4429 14 41.1001 18.3428 41.1001 23.7C41.1001 29.0572 45.4429 33.4 50.8001 33.4Z" fill="white"/>
</svg>
